<svg width="1989" height="1276" viewBox="0 0 1989 1276" fill="none" xmlns="http://www.w3.org/2000/svg">
<g opacity="0.8">
<g opacity="0.5">
<path d="M194.802 436.533C196.222 433.705 194.906 430.804 191.862 430.055C188.819 429.307 185.201 430.993 183.781 433.821C182.361 436.65 183.677 439.55 186.721 440.299C189.764 441.048 193.382 439.362 194.802 436.533Z" fill="#CED3E6" fill-opacity="0.5"/>
</g>
<path d="M1747.47 947.468C1747.97 945.831 1749.62 944.464 1751.39 944.282C1754.4 943.972 1756.02 947.13 1753.08 950.124C1749.54 952.459 1746.6 950.34 1747.47 947.468Z" fill="#CED3E6" fill-opacity="0.5"/>
<path d="M494.275 931.022C492.863 927.976 488.29 926.997 484.061 928.834C479.832 930.672 477.549 934.63 478.961 937.676C480.374 940.721 484.947 941.701 489.176 939.863C493.404 938.026 495.688 934.067 494.275 931.022Z" fill="#CED3E6" fill-opacity="0.5"/>
<g opacity="0.8">
<path d="M1521.22 882.093C1525.3 881.979 1527.97 884.969 1527.18 888.782C1526.4 892.595 1522.47 895.784 1518.39 895.898C1514.32 896.012 1511.65 893.022 1512.43 889.209C1513.21 885.395 1517.15 882.208 1521.22 882.093Z" fill="#CED3E6" fill-opacity="0.5"/>
</g>
<path d="M1503.73 403.345C1503.9 401.717 1505.32 400.138 1507.09 399.66C1510.11 398.836 1512.42 401.523 1510.03 404.86C1506.88 407.681 1503.43 406.197 1503.73 403.345Z" fill="#CED3E6" fill-opacity="0.5"/>
<path d="M1863.54 425.702C1867.68 424.874 1871.04 427.227 1871.02 430.955C1871.02 434.678 1867.64 438.369 1863.49 439.188C1859.34 440.016 1855.99 437.663 1856.01 433.935C1856.02 430.214 1859.39 426.529 1863.54 425.702Z" fill="#CED3E6" fill-opacity="0.5"/>
<path d="M993.399 756.168C995.662 756.726 996.574 759.008 995.447 761.259C994.321 763.51 991.571 764.888 989.315 764.331C987.052 763.772 986.14 761.491 987.267 759.24C988.393 756.989 991.143 755.611 993.399 756.168Z" fill="#CED3E6" fill-opacity="0.5"/>
</g>
</svg>
