<svg width="138" height="40" viewBox="0 0 138 40" fill="none" xmlns="http://www.w3.org/2000/svg">
<path d="M14.9348 7.09036V17.9738H4.80569V7.09036H0V33.0706H4.80699V22.5403H14.9335V33.0706H19.7418V7.09036H14.9348ZM35.1281 24.6734C35.1281 25.7147 34.709 26.7134 33.9631 27.4497C33.2171 28.1861 32.2054 28.5998 31.1504 28.5998C30.0955 28.5998 29.0838 28.1861 28.3378 27.4497C27.5919 26.7134 27.1728 25.7147 27.1728 24.6734V13.5447H22.613V24.6734C22.613 26.9063 23.5116 29.0477 25.1111 30.6266C26.7106 32.2055 28.88 33.0925 31.142 33.0925C33.404 33.0925 35.5734 32.2055 37.1729 30.6266C38.7724 29.0477 39.671 26.9063 39.671 24.6734V13.5447H35.1281V24.6734ZM68.9149 14.6914C68.9149 12.4094 70.4435 11.6864 72.1178 11.6864C73.4682 11.6864 75.2505 12.701 76.4174 13.9312L79.4031 10.4562C77.9122 8.46572 74.8888 7.09036 72.4131 7.09036C67.4656 7.09036 63.888 9.95023 63.888 14.6914C63.888 23.4881 74.7795 20.6963 74.7795 25.6198C74.7795 27.1377 73.286 28.4784 71.5766 28.4784C68.8797 28.4784 68.0055 27.1775 66.767 25.8009L63.4522 29.2027C65.5727 31.771 68.1876 33.0758 71.319 33.0758C76.0193 33.0758 79.7999 30.1812 79.7999 25.6558C79.7999 15.8909 68.9071 18.9254 68.9071 14.6914M136.296 28.9202C133.602 28.9202 132.835 27.7695 132.835 26.0076V18.2062H137.024V14.2535H132.835V9.03847L128.212 11.0867V26.9772C128.212 31.0416 131.053 33.0899 134.948 33.0899C135.56 33.1002 136.171 33.0514 136.772 32.9461L137.9 28.847C137.391 28.8816 136.807 28.9163 136.296 28.9163M52.4853 13.6744C50.2268 13.6744 48.6501 14.3216 47.1254 15.7971V7.24575H42.5591V23.0964C42.5591 29.0293 46.9042 33.095 51.788 33.095C57.2051 33.095 61.9704 28.9574 61.9704 23.3866C61.9704 17.8852 57.585 13.6782 52.4853 13.6782M52.4566 28.558C51.7761 28.558 51.1022 28.4257 50.4735 28.1686C49.8447 27.9115 49.2734 27.5347 48.7922 27.0597C48.311 26.5847 47.9292 26.0208 47.6688 25.4001C47.4084 24.7795 47.2743 24.1143 47.2743 23.4425C47.2743 22.7707 47.4084 22.1055 47.6688 21.4849C47.9292 20.8642 48.311 20.3003 48.7922 19.8253C49.2734 19.3502 49.8447 18.9734 50.4735 18.7163C51.1022 18.4593 51.7761 18.3269 52.4566 18.3269C53.8311 18.3269 55.1492 18.8659 56.1211 19.8253C57.093 20.7846 57.6389 22.0858 57.6389 23.4425C57.6389 24.7992 57.093 26.1004 56.1211 27.0597C55.1492 28.0191 53.8311 28.558 52.4566 28.558ZM102.077 23.1503C102.077 17.5693 97.3223 13.4419 91.8947 13.4419C87.0123 13.4419 82.6658 17.5064 82.6658 23.4406V39.3002H87.2322V30.7373C88.7543 32.2102 90.3336 32.86 92.5894 32.86C97.6891 32.86 102.076 28.653 102.076 23.1503M97.7529 23.0938C97.7529 24.4506 97.2069 25.7517 96.235 26.7111C95.2632 27.6704 93.945 28.2094 92.5706 28.2094C91.1961 28.2094 89.878 27.6704 88.9061 26.7111C87.9343 25.7517 87.3883 24.4506 87.3883 23.0938C87.3883 21.7371 87.9343 20.4359 88.9061 19.4766C89.878 18.5172 91.1961 17.9783 92.5706 17.9783C93.945 17.9783 95.2632 18.5172 96.235 19.4766C97.2069 20.4359 97.7529 21.7371 97.7529 23.0938Z" fill="#D9ECFF"/>
<path d="M116.831 13.2233V8.69404C117.438 8.41431 117.951 7.97033 118.312 7.41379C118.672 6.85725 118.866 6.21103 118.869 5.55036V5.44635C118.869 3.52007 117.287 1.95851 115.335 1.95851H115.23C114.293 1.95851 113.394 2.32598 112.731 2.98007C112.069 3.63417 111.697 4.52131 111.697 5.44635V5.55036C111.7 6.21103 111.893 6.85725 112.253 7.41379C112.614 7.97033 113.127 8.41431 113.734 8.69404V13.2233C111.991 13.4867 110.35 14.2 108.976 15.2909L96.3922 5.61586C96.482 5.2961 96.5288 4.96735 96.534 4.63731C96.5356 3.86 96.3035 3.0997 95.8673 2.45258C95.431 1.80547 94.8102 1.3006 94.0832 1.00185C93.3562 0.703092 92.5558 0.623873 91.7832 0.77421C91.0106 0.924548 90.3006 1.29769 89.7428 1.84643C89.1851 2.39517 88.8048 3.09486 88.65 3.857C88.4951 4.61914 88.5728 5.40948 88.8731 6.12806C89.1733 6.84663 89.6828 7.46116 90.3369 7.89391C90.991 8.32666 91.7605 8.55818 92.5479 8.5592C93.2369 8.556 93.9129 8.37445 94.5085 8.03269L106.9 17.551C105.787 19.2111 105.206 21.1636 105.233 23.1542C105.261 25.1447 105.895 27.081 107.053 28.7106L103.285 32.4321C102.98 32.336 102.663 32.2849 102.343 32.2806C101.696 32.2811 101.065 32.4707 100.527 32.8255C99.9902 33.1803 99.5716 33.6844 99.3244 34.274C99.0773 34.8635 99.0128 35.5122 99.139 36.138C99.2653 36.7637 99.5766 37.3385 100.034 37.7897C100.491 38.2409 101.073 38.5482 101.707 38.6728C102.341 38.7974 102.998 38.7337 103.595 38.4897C104.193 38.2458 104.703 37.8326 105.063 37.3023C105.422 36.7719 105.614 36.1484 105.615 35.5103C105.61 35.1946 105.559 34.8813 105.461 34.5806L109.19 30.8988C110.405 31.8228 111.819 32.4598 113.323 32.761C114.827 33.0623 116.381 33.0197 117.865 32.6367C119.35 32.2537 120.726 31.5403 121.888 30.5512C123.05 29.5621 123.967 28.3236 124.569 26.9305C125.172 25.5374 125.443 24.0267 125.362 22.5142C125.282 21.0016 124.852 19.5273 124.105 18.2043C123.358 16.8812 122.314 15.7444 121.053 14.8811C119.793 14.0177 118.348 13.4506 116.831 13.2233ZM115.286 28.1199C114.597 28.1386 113.911 28.0208 113.269 27.7734C112.627 27.526 112.041 27.1541 111.547 26.6796C111.053 26.2051 110.66 25.6377 110.392 25.0108C110.124 24.384 109.986 23.7104 109.986 23.03C109.986 22.3496 110.124 21.676 110.392 21.0492C110.66 20.4223 111.053 19.8549 111.547 19.3804C112.041 18.9059 112.627 18.534 113.269 18.2866C113.911 18.0392 114.597 17.9214 115.286 17.9401C116.621 17.9863 117.887 18.5423 118.815 19.491C119.744 20.4397 120.263 21.7071 120.264 23.0262C120.264 24.3454 119.746 25.6133 118.819 26.5629C117.891 27.5125 116.627 28.0698 115.291 28.1173" fill="#FF7A59"/>
</svg>
