<svg width="161" height="42" viewBox="0 0 161 42" fill="none" xmlns="http://www.w3.org/2000/svg">
<path d="M28.0868 7.53898C21.9533 7.037 15.1214 7.03701 8.98781 7.53898C7.70387 7.64406 6.73104 8.76423 6.63451 10.1334C6.3249 14.5245 6.28372 21.103 6.5676 25.4896C6.66138 26.9386 7.77785 28.1822 9.28829 28.1822H14.0233V34.8375L9.29795 34.8337C4.96309 34.8337 1.07215 31.1728 0.736047 25.9796C0.430058 21.2517 0.472321 14.3309 0.805889 9.59992C1.14019 4.85856 4.48638 1.22772 8.56889 0.893603C14.9814 0.3688 22.0933 0.368798 28.5057 0.893601C32.5882 1.22772 35.9345 4.85856 36.2688 9.59992C36.6023 14.3309 36.5877 21.2517 36.2817 25.9796C35.9456 31.1728 32.0637 34.8486 27.7288 34.8486L23.0524 34.8447L14.0233 41.5V34.8375L23.0524 28.1822H27.7295C29.2399 28.1822 30.3564 26.9386 30.4502 25.4896C30.7341 21.103 30.7497 14.5245 30.4401 10.1334C30.3435 8.76423 29.3708 7.64406 28.0868 7.53898Z" fill="#FE5000"/>
<path d="M45.4629 29.7532H59.5938V25.7106H49.745V5.35825H45.4629V29.7532Z" fill="#D9ECFF"/>
<path d="M61.6431 29.753H65.8028V11.6311H61.6431V29.753ZM61.3066 6.89146C61.3066 8.45971 62.316 9.64461 63.723 9.64461C65.1299 9.64461 66.1393 8.45971 66.1393 6.89146C66.1393 5.32321 65.1299 4.13831 63.723 4.13831C62.316 4.13831 61.3066 5.32321 61.3066 6.89146Z" fill="#D9ECFF"/>
<path d="M82.1122 11.6309H77.9525L74.5268 24.9087L71.1011 11.6309H66.9414L72.3552 29.7528H76.6984L82.1122 11.6309Z" fill="#D9ECFF"/>
<path d="M89.5347 30.1702C93.0521 30.1702 95.8967 27.7656 96.4472 24.4548H92.8075C92.4098 25.7094 91.3087 26.7549 89.5347 26.7549C87.1184 26.7549 86.1702 24.9079 86.1702 22.782V22.329H96.5696V19.1576C96.5696 14.8014 94.1838 11.2118 89.4735 11.2118C84.7021 11.2118 82.1328 14.6968 82.1328 19.6107V22.085C82.1328 27.1731 85.0385 30.1702 89.5347 30.1702ZM86.1702 18.8091C86.1702 16.3696 87.0878 14.5574 89.4735 14.5574C91.7063 14.5574 92.7463 16.2651 92.7463 18.5303V18.9834H86.1702V18.8091Z" fill="#D9ECFF"/>
<path d="M107.625 30.2405C113.039 30.2405 116.373 26.0585 116.587 21.075H112.611C112.335 23.8281 110.806 26.2328 107.625 26.2328C104.046 26.2328 102.517 23.4448 102.517 19.5416V15.5687C102.517 11.6655 104.046 8.8775 107.625 8.8775C110.806 8.8775 112.335 11.2822 112.611 14.0353H116.587C116.373 9.05175 113.039 4.86975 107.625 4.86975C101.171 4.86975 98.2656 9.5745 98.2656 15.8126V19.2976C98.2656 25.5358 101.171 30.2405 107.625 30.2405Z" fill="#D9ECFF"/>
<path d="M118.848 29.7533H123.008V19.0195C123.008 16.58 124.2 15.3254 126.066 15.3254C128.085 15.3254 128.971 16.8239 128.971 18.9149V29.7533H133.131V18.1482C133.131 13.8616 130.96 11.213 127.503 11.213C125.455 11.213 123.833 12.2237 123.008 13.7919V4.31271H118.848V29.7533Z" fill="#D9ECFF"/>
<path d="M141.073 30.1702C142.908 30.1702 144.927 29.299 145.661 28.0792V29.752H149.667V18.1818C149.667 13.965 146.946 11.2118 142.969 11.2118C139.544 11.2118 137.066 13.0937 136.148 16.6136H140.002C140.43 15.6378 141.318 14.9059 142.755 14.9059C144.467 14.9059 145.507 16.1605 145.507 17.8333V20.3077C144.773 19.6107 143.366 18.7743 141.47 18.7743C137.647 18.7743 135.047 20.5865 135.047 24.5245C135.047 28.0444 137.494 30.1702 141.073 30.1702ZM142.143 27.0337C140.4 27.0337 139.084 26.0579 139.084 24.3851C139.084 22.7123 140.308 21.8062 142.265 21.8062C144.132 21.8062 145.507 22.7472 145.507 24.3503C145.507 25.8837 143.978 27.0337 142.143 27.0337Z" fill="#D9ECFF"/>
<path d="M157.44 29.7523H160.315V25.9188H158.632C157.531 25.9188 157.134 25.4309 157.134 24.246V15.4638H160.528V11.6303H157.134V6.68164H152.943V11.6303H150.68V15.4638H152.943V24.5945C152.943 27.8007 154.381 29.7523 157.44 29.7523Z" fill="#D9ECFF"/>
</svg>
