<svg width="147" height="42" viewBox="0 0 147 42" fill="none" xmlns="http://www.w3.org/2000/svg">
<path d="M44.8294 18.8465H31.4472L43.0362 12.578L40.738 8.84702L29.1476 15.1155L35.8372 4.2588L31.8556 2.10528L25.1645 12.9593V0.424988H20.5652V12.9606L13.8742 2.10528L9.89113 4.2588L16.5807 15.1128L4.99321 8.84702L2.69356 12.578L14.2826 18.8465H0.900391V23.1549H14.2811L2.69356 29.4234L4.99175 33.1543L16.5822 26.8858L9.89113 37.7425L13.8727 39.8961L20.5652 29.0407V41.575H25.1645V28.7719L31.9786 39.8275L35.7128 37.8084L28.8973 26.75L40.7351 33.153L43.0348 29.422L31.4472 23.1535H44.8279V18.8465H44.8294ZM22.8649 26.857C22.0438 26.8571 21.2308 26.7057 20.4723 26.4114C19.7137 26.117 19.0244 25.6856 18.4439 25.1416C17.8633 24.5977 17.4027 23.952 17.0884 23.2412C16.7741 22.5304 16.6124 21.7687 16.6122 20.9993C16.6121 20.2299 16.7737 19.4681 17.0878 18.7573C17.4019 18.0465 17.8623 17.4006 18.4429 16.8566C19.0233 16.3126 19.7124 15.8809 20.471 15.5864C21.2295 15.2919 22.0424 15.1404 22.8634 15.1402C24.5215 15.1401 26.1118 15.7571 27.2844 16.8556C28.4571 17.9542 29.116 19.4442 29.1161 20.9979C29.1163 22.5516 28.4578 24.0418 27.2855 25.1406C26.1131 26.2395 24.523 26.8569 22.8649 26.857Z" fill="#5753F3"/>
<path d="M56.6836 36.051V5.94843H62.5798V36.051H56.6836ZM113.235 15.594H118.865V18.0904C120.062 16.0946 122.857 15.0124 125.25 15.0124C128.222 15.0124 130.615 16.2195 131.723 18.421C133.45 15.9246 135.757 15.0124 138.64 15.0124C142.674 15.0124 146.529 17.299 146.529 22.787V36.051H140.812V23.9104C140.812 21.7061 139.658 20.0423 136.953 20.0423C134.425 20.0423 132.917 21.8735 132.917 24.0777V36.0524H127.068V23.9104C127.068 21.7061 125.871 20.0423 123.209 20.0423C120.638 20.0423 119.13 21.8323 119.13 24.0777V36.0524H113.235V15.594ZM75.9049 36.6436C69.2621 36.6436 64.4521 32.0252 64.4521 25.8225C64.4521 19.7186 69.2475 14.9918 75.9049 14.9918C82.5945 14.9918 87.3578 19.7625 87.3578 25.8225C87.3578 31.9813 82.5448 36.6436 75.9049 36.6436ZM75.9049 19.9984C74.2572 20.0006 72.6778 20.6151 71.513 21.7074C70.3484 22.7995 69.6937 24.2799 69.6925 25.8239C69.6937 27.3678 70.3484 28.8483 71.513 29.9404C72.6778 31.0326 74.2572 31.6472 75.9049 31.6493C77.5523 31.6467 79.1315 31.0321 80.2958 29.94C81.4601 28.8479 82.1147 27.3675 82.1159 25.8239C82.1147 24.2802 81.4601 22.7999 80.2958 21.7078C79.1315 20.6157 77.5523 20.001 75.9049 19.9984ZM99.951 36.6436C93.3082 36.6436 88.4981 32.0252 88.4981 25.8225C88.4981 19.7186 93.2935 14.9918 99.951 14.9918C106.641 14.9918 111.404 19.7625 111.404 25.8225C111.404 31.9813 106.588 36.6436 99.951 36.6436ZM99.951 19.9285C98.2844 19.9311 96.6868 20.5528 95.5089 21.6574C94.3308 22.762 93.6683 24.2595 93.6668 25.8211C93.6683 27.3828 94.3308 28.8802 95.5089 29.9848C96.6868 31.0894 98.2844 31.7112 99.951 31.7138C101.618 31.7112 103.215 31.0894 104.393 29.9848C105.571 28.8802 106.234 27.3828 106.235 25.8211C106.234 24.2595 105.571 22.762 104.393 21.6574C103.215 20.5528 101.618 19.9311 99.951 19.9285Z" fill="#D9ECFF"/>
</svg>
