<svg width="161" height="30" viewBox="0 0 161 30" fill="none" xmlns="http://www.w3.org/2000/svg">
<path d="M65.126 11.3025H70.3798C69.5034 6.45856 64.6671 3.08459 58.3731 3.08459C50.9261 3.08459 45.3379 7.83255 45.3379 15.7845C45.3379 23.5943 50.6747 28.4383 58.5254 28.4383C65.5711 28.4383 70.615 24.5083 70.615 18.1465V15.1825H59.0673V18.6764H65.6265C65.5435 22.1963 62.8336 24.4243 58.553 24.4243C53.7882 24.4243 50.5225 21.3283 50.5225 15.7365C50.5225 10.1805 53.8436 7.09656 58.4423 7.09656C61.8741 7.09656 64.222 8.68654 65.126 11.3025Z" fill="#D9ECFF"/>
<path d="M74.0895 28.1003H79.1196V9.60049H74.0895V28.1003ZM76.6265 6.66052C78.2247 6.66052 79.5301 5.59853 79.5301 4.29854C79.5301 2.99855 78.2247 1.92456 76.6265 1.92456C75.0282 1.92456 73.709 2.98455 73.709 4.29854C73.709 5.61253 75.0051 6.66052 76.6172 6.66052H76.6265Z" fill="#D9ECFF"/>
<path d="M94.1817 9.60057H89.9704V5.15662H84.9403V9.60057H81.9121V12.9745H84.9403V23.2664C84.9126 26.7483 87.8324 28.4663 91.6101 28.3643C92.6164 28.3471 93.6143 28.2007 94.5714 27.9303L93.7227 24.5184C93.2421 24.6266 92.7478 24.6838 92.2513 24.6884C90.9851 24.6884 89.9704 24.3024 89.9704 22.5424V12.9645H94.1817V9.60057Z" fill="#D9ECFF"/>
<path d="M98.0742 28.1004H115.764V24.3524H103.231V3.42065H98.0742V28.1004Z" fill="#D9ECFF"/>
<path d="M125.398 28.4744C128.747 28.4744 130.747 27.1124 131.665 25.5584H131.831V28.1004H136.674V15.7125C136.674 10.8206 132.075 9.35059 128.002 9.35059C123.514 9.35059 120.069 11.0846 118.957 14.4585L123.655 15.0385C124.153 13.7725 125.571 12.6886 128.037 12.6886C130.373 12.6886 131.651 13.7245 131.651 15.5445V15.6165C131.651 16.8685 130.136 16.9305 126.369 17.2785C122.23 17.6645 118.27 18.7365 118.27 22.9065C118.256 26.5464 121.325 28.4744 125.398 28.4744ZM127.052 25.2744C124.953 25.2744 123.452 24.4424 123.452 22.8405C123.452 21.1645 125.133 20.4665 127.373 20.1885C128.694 20.0325 131.335 19.7425 131.985 19.2865V21.4665C131.999 23.5205 130.08 25.2684 127.052 25.2684V25.2744Z" fill="#D9ECFF"/>
<path d="M140.379 28.1004H145.326V25.1844H145.617C146.41 26.5344 148.064 28.4264 151.733 28.4264C156.763 28.4264 160.529 24.9664 160.529 18.8705C160.529 12.7006 156.652 9.3506 151.719 9.3506C147.953 9.3506 146.382 11.3146 145.617 12.6526H145.404V3.42065H140.379V28.1004ZM145.312 18.8465C145.312 15.2465 147.09 12.9286 150.328 12.9286C153.677 12.9286 155.402 15.3985 155.402 18.8465C155.402 22.2945 153.652 24.8464 150.328 24.8464C147.118 24.8464 145.312 22.4365 145.312 18.8465Z" fill="#D9ECFF"/>
<path d="M35.8549 11.8746L35.8064 11.7626L30.9171 0.702715C30.8181 0.485551 30.6419 0.30133 30.4143 0.17672C30.2443 0.0823945 30.0513 0.023901 29.8506 0.00592717C29.65 -0.0120481 29.4472 0.0109971 29.2586 0.0732145C29.0702 0.135434 28.9009 0.235093 28.7648 0.364208C28.6287 0.493321 28.5293 0.648297 28.4747 0.816714L25.1743 9.57863H11.8093L8.50892 0.816714C8.45387 0.648549 8.35428 0.493865 8.21807 0.364998C8.08186 0.236131 7.91281 0.136648 7.72438 0.0744805C7.53598 0.0123131 7.33344 -0.0108175 7.13288 0.00693317C6.93235 0.024685 6.73936 0.0828245 6.56931 0.17672C6.34161 0.30133 6.1655 0.485551 6.06654 0.702715L1.17948 11.7646L1.12874 11.8746C0.425141 13.4692 0.338461 15.2189 0.881763 16.86C1.42506 18.501 2.56889 19.9445 4.14079 20.9725L4.15924 20.9845L4.20073 21.0125L11.6386 25.8464L15.3287 28.2644L17.5704 29.7344C17.8334 29.9068 18.1541 30 18.4837 30C18.8134 30 19.134 29.9068 19.397 29.7344L21.6387 28.2644L25.3289 25.8464L32.8198 20.9845L32.8405 20.9705C34.4123 19.9429 35.5562 18.4999 36.1 16.8592C36.6436 15.2186 36.5576 13.4692 35.8549 11.8746Z" fill="#E24329"/>
<path d="M35.8553 11.8746L35.8069 11.7626C33.4247 12.1865 31.18 13.062 29.2339 14.3265L18.498 21.3665L25.3339 25.8464L32.8248 20.9845L32.8456 20.9705C34.4166 19.9423 35.5597 18.4991 36.1026 16.8585C36.6452 15.2179 36.5585 13.4687 35.8553 11.8746Z" fill="#FC6D26"/>
<path d="M11.6387 25.8464L15.3288 28.2644L17.5705 29.7344C17.8335 29.9068 18.1542 30 18.4838 30C18.8134 30 19.1341 29.9068 19.3971 29.7344L21.6388 28.2644L25.3289 25.8464L18.493 21.3665L11.6387 25.8464Z" fill="#FCA326"/>
<path d="M7.75014 14.3267C5.80468 13.0628 3.56082 12.1879 1.17947 11.7647L1.12874 11.8747C0.425141 13.4693 0.338461 15.2191 0.881763 16.8601C1.42506 18.5011 2.56889 19.9446 4.14079 20.9726L4.15924 20.9846L4.20073 21.0126L11.6386 25.8465L18.4791 21.3666L7.75014 14.3267Z" fill="#FC6D26"/>
</svg>
