<svg width="73" height="57" viewBox="0 0 73 57" fill="none" xmlns="http://www.w3.org/2000/svg">
<g clip-path="url(#clip0_94_1409)">
<path d="M0.294088 13.7722C0.529625 12.7398 0.709379 11.695 1.0131 10.6872C2.94698 4.36955 8.20938 0.319626 14.854 0.0123495C16.9924 -0.0859792 18.6474 1.26605 18.8271 3.27564C18.9821 4.9841 17.5937 6.58195 15.6598 6.90152C14.8354 7.03672 13.9738 7.05515 13.1805 7.28254C9.75277 8.26583 7.57715 11.1665 7.385 14.9645C7.34161 15.7941 7.3788 16.6238 7.3788 17.6132C7.94285 17.6378 8.43871 17.6808 8.92838 17.6808C14.5503 17.687 20.166 17.6808 25.7879 17.687C30.2631 17.687 32.6309 20.0407 32.6309 24.4532C32.6309 33.1369 32.6309 41.8205 32.6247 50.5042C32.6247 54.4988 30.2321 56.957 26.197 56.9816C19.7321 57.0246 13.2734 57.0123 6.80855 56.9816C3.32508 56.9632 1.62053 55.5436 0.287889 51.6964C0.294089 39.0489 0.294087 26.4075 0.294088 13.7722ZM25.5152 24.6867C19.8127 24.6867 14.2962 24.7175 8.77962 24.6622C7.65153 24.6499 7.354 24.994 7.3602 26.0818C7.39739 33.6039 7.39739 41.1199 7.35401 48.6421C7.34781 49.6684 7.63293 50.0003 8.69905 49.9941C13.9428 49.9511 19.1866 49.9818 24.4304 49.9818C24.7838 49.9818 25.1433 49.9019 25.5214 49.8589C25.5152 41.4641 25.5152 33.1737 25.5152 24.6867Z" fill="#FAB437"/>
<path d="M47.0548 17.6807C49.4784 17.6807 51.809 17.6807 54.1457 17.6807C57.9887 17.6807 61.8317 17.6684 65.6685 17.6807C69.7346 17.6991 72.2635 20.1512 72.2759 24.1827C72.3007 32.9647 72.3069 41.7405 72.2759 50.5225C72.2573 54.4803 69.7656 56.9569 65.7738 56.9753C59.3523 57.0061 52.9371 56.9999 46.5156 56.9753C42.2945 56.9569 39.9453 54.5663 39.9453 50.3627C39.9453 38.5633 39.9391 26.7638 39.9453 14.9643C39.9515 8.27799 44.3709 2.3844 50.8172 0.565318C52.1003 0.20273 53.4825 0.061383 54.8214 0.0183642C56.749 -0.0492367 58.1437 1.27206 58.3048 3.10343C58.4784 5.05158 57.3441 6.59411 55.3792 6.83993C53.309 7.09804 51.3317 7.43605 49.7139 8.91098C47.1478 11.2647 46.7697 14.2515 47.0548 17.6807ZM47.03 49.8404C47.3275 49.9018 47.5073 49.9633 47.6809 49.9633C53.1602 49.9694 58.6395 49.951 64.1189 49.9879C65.1664 49.994 65.2098 49.4593 65.2098 48.6789C65.1974 41.1075 65.1788 33.5424 65.2222 25.971C65.2284 24.9079 64.8751 24.6436 63.8461 24.6497C58.6457 24.6928 53.4515 24.6682 48.2511 24.6743C47.8544 24.6743 47.4515 24.7419 47.0238 24.7788C47.03 33.1921 47.03 41.4517 47.03 49.8404Z" fill="#FAB437"/>
</g>
<defs>
<clipPath id="clip0_94_1409">
<rect width="72" height="57" fill="white" transform="translate(72.2949 57.0001) rotate(-180)"/>
</clipPath>
</defs>
</svg>
