<svg width="211" height="46" viewBox="0 0 211 46" fill="none" xmlns="http://www.w3.org/2000/svg">
<path d="M63.6542 16.3611H83.7463V19.7565H75.8356V38.8971H71.4992V19.7565H63.6211L63.6542 16.3611ZM82.8861 22.581H86.5938V25.736H86.6596C86.7924 25.2853 87.0244 24.8646 87.3547 24.444C87.6861 24.0232 88.0833 23.6327 88.5798 23.3021C89.0428 22.9415 89.5728 22.6711 90.1686 22.4608C90.731 22.2505 91.3268 22.1303 91.9226 22.1303C92.3867 22.1303 92.717 22.1603 92.8833 22.1603C93.0484 22.1903 93.247 22.2204 93.4121 22.2204V25.6759C93.1477 25.6158 92.8498 25.5857 92.5519 25.5558C92.254 25.5257 91.9895 25.4956 91.6916 25.4956C91.0289 25.4956 90.4007 25.6158 89.8049 25.8562C89.2091 26.0966 88.7115 26.4572 88.2484 26.9079C87.8177 27.3887 87.454 27.9595 87.1896 28.6507C86.924 29.3417 86.7923 30.1531 86.7923 31.0545V38.8069H82.82L82.8861 22.581ZM111.651 38.8971H107.713V36.6133H107.646C107.149 37.4547 106.422 38.0857 105.461 38.5965C104.502 39.1073 103.509 39.3478 102.516 39.3478C100.165 39.3478 98.4442 38.8369 97.3842 37.7552C96.3254 36.7035 95.7954 35.0809 95.7954 32.9475V22.581H99.7675V32.5869C99.7675 34.0293 100.065 35.0508 100.695 35.6218C101.291 36.2228 102.152 36.5232 103.243 36.5232C104.071 36.5232 104.766 36.4031 105.33 36.1626C105.892 35.9223 106.355 35.6218 106.686 35.2311C107.05 34.8406 107.282 34.3598 107.447 33.8189C107.613 33.2781 107.679 32.6771 107.679 32.0461V22.581H111.651V38.8971ZM118.372 33.6686C118.503 34.7203 118.934 35.4415 119.695 35.8922C120.456 36.3129 121.383 36.5232 122.443 36.5232C122.807 36.5232 123.237 36.4932 123.7 36.433C124.164 36.373 124.628 36.2828 125.025 36.1326C125.454 35.9823 125.786 35.7721 126.05 35.4716C126.316 35.1711 126.447 34.8105 126.415 34.3598C126.382 33.9091 126.217 33.5184 125.852 33.2179C125.488 32.9175 125.057 32.7071 124.528 32.4968C123.998 32.3165 123.369 32.1663 122.674 32.0461C121.979 31.9258 121.284 31.7756 120.556 31.6254C119.828 31.4751 119.099 31.2949 118.404 31.0846C117.709 30.8742 117.113 30.6038 116.551 30.2132C116.021 29.8526 115.558 29.4019 115.26 28.8309C114.928 28.26 114.763 27.5989 114.763 26.7577C114.763 25.8562 114.994 25.135 115.491 24.5341C115.955 23.9331 116.583 23.4523 117.312 23.0917C118.04 22.7312 118.867 22.4608 119.761 22.3105C120.654 22.1603 121.516 22.1002 122.31 22.1002C123.237 22.1002 124.131 22.1903 124.958 22.3706C125.786 22.5509 126.58 22.8213 127.242 23.242C127.937 23.6327 128.5 24.1735 128.93 24.8045C129.394 25.4355 129.659 26.2167 129.791 27.1182H125.653C125.454 26.2468 125.025 25.6759 124.362 25.3755C123.667 25.075 122.906 24.9247 122.012 24.9247C121.748 24.9247 121.383 24.9547 121.019 24.9848C120.622 25.0449 120.291 25.105 119.927 25.2252C119.596 25.3454 119.298 25.5257 119.066 25.736C118.835 25.9463 118.702 26.2468 118.702 26.6074C118.702 27.0581 118.867 27.3887 119.198 27.6591C119.53 27.9295 119.96 28.1399 120.523 28.3502C121.053 28.5304 121.681 28.6807 122.376 28.8009C123.071 28.9211 123.8 29.0713 124.528 29.2216C125.256 29.3718 125.951 29.5521 126.646 29.7624C127.341 29.9728 127.97 30.2432 128.5 30.6338C129.029 30.9944 129.493 31.4452 129.824 31.986C130.155 32.5269 130.32 33.2179 130.32 33.9992C130.32 34.9607 130.089 35.7721 129.593 36.4631C129.096 37.1242 128.467 37.6951 127.706 38.1158C126.944 38.5365 126.05 38.8369 125.124 39.0473C124.164 39.2275 123.237 39.3478 122.31 39.3478C121.184 39.3478 120.126 39.2275 119.166 38.9872C118.205 38.7468 117.345 38.3862 116.65 37.9355C115.955 37.4547 115.391 36.8839 114.994 36.1626C114.597 35.4716 114.366 34.6302 114.333 33.6386H118.338V33.6686H118.372ZM131.446 22.581H134.459V17.6532H138.431V22.5509H142.006V25.2252H138.431V33.9392C138.431 34.3297 138.464 34.6302 138.497 34.9307C138.53 35.2011 138.629 35.4415 138.729 35.6218C138.861 35.802 139.06 35.9524 139.291 36.0425C139.556 36.1326 139.887 36.1927 140.351 36.1927C140.615 36.1927 140.913 36.1927 141.178 36.1626C141.443 36.1326 141.741 36.1026 142.006 36.0425V38.8369C141.575 38.8971 141.145 38.927 140.715 38.9571C140.284 39.0172 139.887 39.0172 139.424 39.0172C138.365 39.0172 137.537 38.927 136.908 38.7468C136.28 38.5665 135.783 38.296 135.418 37.9656C135.054 37.605 134.822 37.1843 134.691 36.6735C134.558 36.1626 134.491 35.5316 134.459 34.8706V25.2552H131.446V22.5209V22.581ZM144.786 22.581H148.526V24.8045H148.593C149.155 23.843 149.917 23.1819 150.91 22.7613C151.903 22.3406 152.962 22.1303 154.154 22.1303C155.578 22.1303 156.802 22.3406 157.862 22.8213C158.92 23.272 159.781 23.873 160.476 24.6843C161.171 25.4656 161.701 26.397 162.032 27.4487C162.363 28.5005 162.561 29.6422 162.561 30.8141C162.561 31.9258 162.396 32.9776 162.098 33.9992C161.767 35.0209 161.304 35.9524 160.674 36.7335C160.046 37.5148 159.252 38.1458 158.259 38.6266C157.266 39.1073 156.14 39.3478 154.816 39.3478C154.253 39.3478 153.657 39.2876 153.094 39.1975C152.532 39.1073 151.969 38.9571 151.439 38.7468C150.91 38.5365 150.413 38.266 149.983 37.9355C149.519 37.605 149.155 37.2143 148.857 36.7936H148.792V44.9367H144.82V22.581H144.786ZM158.656 30.754C158.656 30.0329 158.557 29.3117 158.325 28.6206C158.126 27.9295 157.795 27.3285 157.365 26.7877C156.934 26.2468 156.404 25.8262 155.809 25.4956C155.18 25.1651 154.452 25.0148 153.657 25.0148C152.002 25.0148 150.744 25.5257 149.884 26.5774C149.056 27.629 148.625 29.0413 148.625 30.7841C148.625 31.6254 148.725 32.3766 148.957 33.0677C149.189 33.7588 149.487 34.3598 149.95 34.8706C150.38 35.3814 150.91 35.7721 151.539 36.0725C152.168 36.373 152.863 36.5232 153.691 36.5232C154.617 36.5232 155.346 36.3429 155.975 36.0124C156.603 35.6819 157.1 35.2311 157.53 34.7203C157.927 34.1795 158.225 33.5785 158.39 32.8874C158.557 32.1663 158.656 31.4751 158.656 30.754ZM165.64 16.3611H169.613V19.7565H165.64V16.3611ZM165.64 22.581H169.613V38.8971H165.64V22.581ZM173.154 16.3611H177.126V38.8971H173.154V16.3611ZM189.241 39.3478C187.819 39.3478 186.528 39.1374 185.402 38.6867C184.276 38.236 183.35 37.665 182.556 36.9138C181.793 36.1626 181.198 35.2311 180.8 34.1795C180.403 33.1278 180.171 31.9559 180.171 30.7239C180.171 29.492 180.37 28.3502 180.8 27.2985C181.198 26.2468 181.793 25.3454 182.556 24.5641C183.316 23.813 184.276 23.212 185.402 22.7913C186.528 22.3706 187.819 22.1303 189.241 22.1303C190.665 22.1303 191.956 22.3406 193.082 22.7913C194.206 23.212 195.133 23.813 195.928 24.5641C196.689 25.3153 197.285 26.2468 197.682 27.2985C198.079 28.3502 198.311 29.492 198.311 30.7239C198.311 31.986 198.113 33.1278 197.682 34.1795C197.252 35.2311 196.689 36.1326 195.928 36.9138C195.167 37.665 194.206 38.266 193.082 38.6867C191.956 39.1073 190.698 39.3478 189.241 39.3478ZM189.241 36.4932C190.103 36.4932 190.897 36.3129 191.525 35.9823C192.188 35.6518 192.684 35.2011 193.114 34.6603C193.545 34.1194 193.843 33.4883 194.041 32.8274C194.24 32.1362 194.339 31.4452 194.339 30.7239C194.339 30.0329 194.24 29.3417 194.041 28.6507C193.843 27.9595 193.545 27.3586 193.114 26.8177C192.684 26.2769 192.154 25.8562 191.525 25.5257C190.863 25.1952 190.103 25.0148 189.241 25.0148C188.381 25.0148 187.586 25.1952 186.957 25.5257C186.296 25.8562 185.799 26.3069 185.368 26.8177C184.939 27.3586 184.64 27.9595 184.441 28.6507C184.244 29.3417 184.144 30.0329 184.144 30.7239C184.144 31.4452 184.244 32.1362 184.441 32.8274C184.64 33.5184 184.939 34.1194 185.368 34.6603C185.799 35.2011 186.329 35.6518 186.957 35.9823C187.62 36.3429 188.381 36.4932 189.241 36.4932ZM199.503 22.581H202.515V17.6532H206.487V22.5509H210.062V25.2252H206.487V33.9392C206.487 34.3297 206.521 34.6302 206.553 34.9307C206.587 35.2011 206.686 35.4415 206.785 35.6218C206.918 35.802 207.117 35.9524 207.348 36.0425C207.613 36.1326 207.943 36.1927 208.408 36.1927C208.672 36.1927 208.97 36.1927 209.234 36.1626C209.5 36.1326 209.798 36.1026 210.062 36.0425V38.8369C209.632 38.8971 209.202 38.927 208.771 38.9571C208.341 39.0172 207.943 39.0172 207.48 39.0172C206.422 39.0172 205.594 38.927 204.964 38.7468C204.336 38.5665 203.84 38.296 203.475 37.9656C203.111 37.605 202.879 37.1843 202.747 36.6735C202.615 36.1626 202.549 35.5316 202.515 34.8706V25.2552H199.503V22.5209V22.581Z" fill="#D9ECFF"/>
<path d="M48.2485 16.4878H30.0758L24.4816 0.802734L18.8543 16.4878L0.681641 16.4578L15.3787 26.1632L9.7514 41.8483L24.4485 32.1428L39.1456 41.8483L33.5514 26.1632L48.2485 16.4878Z" fill="#00B67A"/>
<path d="M34.8101 29.7088L33.5522 26.1631L24.4824 32.1426L34.8101 29.7088Z" fill="#005128"/>
</svg>
